<?xml version="1.0" encoding="UTF-8"?>
<svg width="60px" height="60px" viewBox="0 0 60 60" version="1.1" xmlns="http://www.w3.org/2000/svg" xmlns:xlink="http://www.w3.org/1999/xlink">
    <!-- Generator: Sketch 57.1 (83088) - https://sketch.com -->
    <title>Behance</title>
    <desc>Created with Sketch.</desc>
    <g id="Page-1" stroke="none" stroke-width="1" fill="none" fill-rule="evenodd">
        <g id="Social_icons" transform="translate(-702.000000, -400.000000)">
            <g id="Behance" transform="translate(702.000000, 400.000000)">
                <path d="M0,30 C0,13.4314567 13.4314567,0 30,0 C46.5685433,0 60,13.4314567 60,30 C60,46.5685433 46.5685433,60 30,60 C13.4314567,60 0,46.5685433 0,30 Z" id="back" fill="#FAFAFA"></path>
                <path d="M34.4478451,23.337355 L42.921998,23.337355 L42.921998,20.9095128 L34.4478451,20.9095128 L34.4478451,23.337355 L34.4478451,23.337355 Z M36.4553764,28.6348028 C35.9153937,29.1842227 35.5748472,29.9285383 35.4356182,30.8677494 L42.026417,30.8677494 C41.9568025,29.8654292 41.6143745,29.1081206 41.0085403,28.5865429 C40.3951802,28.0686775 39.6407096,27.8106729 38.7376028,27.8106729 C37.759237,27.8106729 36.9953591,28.0853828 36.4553764,28.6348028 L36.4553764,28.6348028 L36.4553764,28.6348028 Z M42.1750533,25.375406 C43.196693,25.824594 44.0377113,26.537355 44.6999897,27.5099768 C45.3039424,28.3675174 45.6915258,29.362413 45.8683842,30.4928074 C45.9718652,31.1535963 46.0132576,32.1113689 45.9963244,33.3568445 L35.3415446,33.3568445 C35.4055146,34.8027842 35.9097493,35.8180974 36.8730633,36.3990719 C37.4563199,36.7610209 38.1581092,36.9429234 38.9821942,36.9429234 C39.8495531,36.9429234 40.5588683,36.7220418 41.1026139,36.2821346 C41.4017681,36.0426914 41.6651742,35.712297 41.890951,35.2890951 L45.7950068,35.2890951 C45.6915258,36.1429234 45.2173947,37.0134571 44.3782578,37.8969838 C43.0687529,39.2983759 41.234317,40 38.8768317,40 C36.9295075,40 35.211723,39.4097448 33.727241,38.225522 C32.2352332,37.0431555 31.493933,35.1164733 31.493933,32.4510441 C31.493933,29.9508121 32.1656187,28.0334107 33.5071087,26.6988399 C34.8523617,25.3679814 36.5927239,24.6979118 38.7357213,24.6979118 C40.0094783,24.6979118 41.1552952,24.9243619 42.1750533,25.375406 L42.1750533,25.375406 L42.1750533,25.375406 Z M17.9416853,30.9197216 L17.9416853,36.1225058 L22.7432035,36.1225058 C23.6011551,36.1225058 24.2709593,36.0074246 24.7469719,35.7791183 C25.6143308,35.3522042 26.0470696,34.5429234 26.0470696,33.3438515 C26.0470696,32.3266821 25.6293826,31.6306265 24.7883643,31.250116 C24.3179962,31.0385151 23.6575993,30.9271462 22.8109365,30.9197216 L17.9416853,30.9197216 L17.9416853,30.9197216 Z M17.9416853,23.387471 L17.9416853,27.6918794 L22.7507294,27.6918794 C23.6067995,27.6918794 24.3048259,27.5303944 24.842927,27.2074246 C25.3772653,26.8844548 25.6463159,26.312761 25.6463159,25.4960557 C25.6463159,24.5846868 25.292599,23.9851508 24.5851653,23.6918794 C23.9718052,23.4895592 23.1928755,23.387471 22.2464947,23.387471 L17.9416853,23.387471 L17.9416853,23.387471 Z M28.6811313,22.0788863 C29.285084,22.9085847 29.5880011,23.899768 29.5880011,25.0561485 C29.5880011,26.2459397 29.285084,27.2055684 28.6736054,27.9294664 C28.3311774,28.3341067 27.8288242,28.7053364 27.1646643,29.0394432 C28.1731337,29.4032483 28.9332486,29.9767981 29.4506536,30.761949 C29.9624142,31.5452436 30.220176,32.4993039 30.220176,33.6204176 C30.220176,34.7767981 29.9266662,35.8143852 29.3377653,36.7313225 C28.9652337,37.3382831 28.4986285,37.85058 27.9379496,38.2663573 C27.3076562,38.7433875 26.5644745,39.0682135 25.7046415,39.2464037 C24.8448085,39.4227378 23.915361,39.5081206 22.9106546,39.5081206 L14,39.5081206 L14,20 L23.5559997,20 C25.9680477,20.0352668 27.6745434,20.7276102 28.6811313,22.0788863 L28.6811313,22.0788863 L28.6811313,22.0788863 Z" fill="#25DC99"></path>
            </g>
        </g>
    </g>
</svg>